<?xml version="1.0" encoding="utf-8"?>
<!-- Generator: Adobe Illustrator 22.1.0, SVG Export Plug-In . SVG Version: 6.00 Build 0)  -->
<svg version="1.1" xmlns="http://www.w3.org/2000/svg" xmlns:xlink="http://www.w3.org/1999/xlink" x="0px" y="0px"
	 viewBox="0 0 1920 966" style="enable-background:new 0 0 1920 966;" xml:space="preserve">
<style type="text/css">
	.st0{display:none;}
	.st1{display:inline;fill:#1D009A;}
	.st2{display:inline;fill:#EBB7FF;}
	.st3{display:inline;fill:#24D6FC;}
	.st4{display:inline;fill:#7B37E4;}
	.st5{fill:#1D009A;}
	.st6{fill:#EBB7FF;}
	.st7{fill:#7B37E4;}
	.st8{fill:url(#nuage_2_);}
	.st9{fill:#E1DCFF;}
	.st10{fill:#24D6FC;}
	.st11{fill:none;stroke:#1D009A;stroke-miterlimit:10;}
	.st12{fill:none;stroke:#1D009A;stroke-linecap:round;stroke-miterlimit:10;}
	.st13{fill:none;stroke:#1D009A;stroke-linecap:round;stroke-miterlimit:10;stroke-dasharray:2.9643,5.9286;}
	.st14{fill:none;stroke:#EBB7FF;stroke-miterlimit:10;}
	.st15{fill:#FFFFFF;}
	.st16{fill:none;stroke:#7B37E4;stroke-miterlimit:10;}
	.st17{fill:url(#nuage_3_);}
	.st18{display:inline;}
	.st19{fill:none;stroke:#000000;stroke-miterlimit:10;}
	.st20{fill:#3B2189;}
	.st21{fill:#FC6147;}
	.st22{fill:#FF99BA;}
	.st23{fill:#54BBF0;}
	.st24{fill:#F9C248;}
	.st25{fill:#FC4F8D;}
	.st26{fill:#56EF9E;}
	.st27{fill:url(#SVGID_1_);}
	.st28{fill:none;stroke:#000000;stroke-width:6;stroke-miterlimit:10;}
</style>
<g id="Calque_2" class="st0">
</g>
<g id="modèle" class="st0">
</g>
<g id="Girl_homepage">
	<path id="cheveux_derrière_1_" class="st5" d="M1455,543c-9-8-26-49-26-49l30.3-77.7L1579,430c0,0,13,108,13,110s-30,25-30,25
		L1455,543z"/>
	<path id="Visage_1_" class="st6" d="M1445,447c0,0,16,13,14,29s-2,19,0,23s15,22,26,20s39-5,52-19c6.3-6.8,4-13,8-12s18,3,21-5
		s5-28-4-26s-14,21-17,17s11-50-4-53s-87-17-93,0S1445,447,1445,447z"/>
	<path id="cou_1_" class="st6" d="M1464,532c0,0,18,8,25,0c4.2-4.8,1-19,0-22s41-10,41-10s-11,33-4,40s10,7,10,7s-25,48-50,32
		S1464,532,1464,532z"/>
	<path id="cheveux_1_" class="st5" d="M1471,444c0,0-4,32,27,35c49.9,4.8,31.3-19.9,52-22c10.6-1.1,17.6-3.4,20,1c7,13,2,49-6,82
		c-1.3,5.4-3.8,12-7,19.2c-16,36.6-48.5,91.4-26,114.8c27,28,40.1-4,83-14c43-10,76,10,117-24c21.8-18.1,29-67-10-108
		s-118.3-7.5-131-39c-19-47,7-94-32-117s-86-10-117,21c-43.3,43.3-12.4,50.6-21,61c-42,51-104,5-116,86c-5.2,35.1,60,113,93,78
		s43-99,55-91s16-13,16-13s-40.4-26.3-16-33C1474,475,1471,444,1471,444z"/>
	<path class="st7" d="M1443,851c0,0,40-22,66-64s29-86,29-86l-95-79l-62-57c0,0-23,25-23,32s28,105,28,105L1443,851z"/>
	<polygon id="morceau_bras_1_" class="st6" points="1544,716 1527,726 1516,696 1519.3,650.1 1566,677 1566,688 	"/>
	<path id="t_shirt_1_" class="st7" d="M1371,577c0,0,40-54,66-54c8.9,0,31,8,31,11s-2.2,21.2,24,26c38,7,38-17,38-17s45-6,62,27
		c7.8,15.2-6,50-11,66s-8,54-12,53s-33-10-37-16s2-10,2-10l-19,31l-65-17L1371,577z"/>
	<path id="main_droite_1_" class="st6" d="M1396.3,578.6c11.8,0,17.2-4.5,21.8,1.8c4.5,6.3,20,16.3,18.1,20
		c-1.8,3.6-16.3,8.2-19,3.6s-12.7-0.9-13.6-2.7c-0.9-1.8,6.3-5.4,6.3-2.7c0,2.7,9.1,4.5,0.9,10c-8.2,5.4-17.2,6.3-21.8,10.9
		s-13.6,3.6-13.6,3.6s-11.8-23.6,0.9-32.6C1389.1,581.3,1384.6,578.6,1396.3,578.6z"/>
	<circle class="st5" cx="1538.5" cy="469.5" r="9.5"/>
	<circle class="st5" cx="1508" cy="483" r="14"/>
	<circle class="st5" cx="1527.5" cy="473.5" r="10.5"/>
	<circle class="st5" cx="1543.5" cy="458.5" r="8.5"/>
	<circle class="st5" cx="1498" cy="475" r="10"/>
	<circle class="st5" cx="1606" cy="504" r="25"/>
	<circle class="st5" cx="1590" cy="479" r="12"/>
	<circle class="st5" cx="1629" cy="646" r="23"/>
	<circle class="st5" cx="1653.5" cy="633.5" r="28.5"/>
	<circle class="st5" cx="1425" cy="458" r="17"/>
	<linearGradient id="nuage_2_" gradientUnits="userSpaceOnUse" x1="942.9407" y1="603" x2="942.9407" y2="0">
		<stop  offset="4.381747e-07" style="stop-color:#24D6FC"/>
		<stop  offset="0.4919" style="stop-color:#7B37E4"/>
		<stop  offset="1" style="stop-color:#1D009A"/>
	</linearGradient>
	<path id="nuage" class="st8" d="M1780,262c-104.8,22.9-233.3-25.7-317.6-35.2c1,3.4,1.6,7,1.6,10.7c0,16.8-11.4,31-26.9,35.2
		c-3.8,18.5-18.9,32.9-37.8,35.8c-6.7,4.3-14,8.3-21.5,11.9c8.1,7.7,13.2,18.5,13.2,30.6c0,23.2-18.8,42-42,42
		c-4.2,0-8.2-0.6-12-1.8c-0.1,8.5-2.4,16.4-6.3,23.3c7.8,2.5,14.4,7.8,18.6,14.8c0.6,0.3,1.1,0.5,1.7,0.8
		c48.5,23.1,91.3,40.8,65,51.8c-43,18-36,30,0,44s65,4,37,24s-17,35-17,35l-7,18c0,0-47-93-143-89c-78.8,3.3-56.6,69.1-175.2,48.6
		c-12,12-28.5,19.4-46.8,19.4c-36.4,0-66-29.6-66-66c0-13.3,3.9-25.6,10.7-35.9c-9.3,3.8-19.5,5.9-30.2,5.9
		c-39.1,0-71.6-28.3-78.3-65.5C892.1,430,880,436,866.5,436c-24.6,0-44.5-19.9-44.5-44.5c0-12.1,4.9-23.1,12.7-31.2
		c-9.6-23.4-17.1-47-23.4-69.5C791,280.9,777,260.1,777,236c0-5.1,0.6-10,1.8-14.7c-13.4,8-29,12.7-45.8,12.7
		c-11.4,0-22.3-2.2-32.4-6.1C695.8,291.2,643,341,578.5,341c-56.3,0-103.7-38-118-89.7c-7.6,2.4-15.6,3.7-24,3.7
		c-43.9,0-79.5-35.6-79.5-79.5c0-3.9,0.3-7.8,0.8-11.5c-4.4-0.1-8.6-0.8-12.6-2c-34.9,42.2-87.7,69-146.7,69
		C93.3,231,8,145.7,8,40.5C8,26.6,9.5,13.1,12.3,0h1766.1c110.1,28.7,149.9,69.7,8.5,107C1533,174,1945,226,1780,262z"/>
	<path id="tel_1_" class="st9" d="M1470,627c0,0-11-45-13-45s-48,0-46,7s16,63,21,64s40-5,40-5L1470,627z"/>
	<path id="bras_1_" class="st6" d="M1566,688c0,0-15,42-38,58c-8.1,5.6-26,12-34-10s-23-70-25-72s-16-11-19-14s-14-6-11-20
		s-2-23,1-25s11-4,13,0s7,16,9,18s8,9,10,6s0-5-1-7s-8-6-5-12s3,2,8,5s6,4,6,8s7,10,7,13s-1,14,2,22c1.6,4.2,39,49,42,57
		S1566,688,1566,688z"/>
	<path id="cheville_droite_1_" class="st6" d="M1178,793c0,0-5,14-5,32s2,27,2,27l33-6l7-22c0,0-4-8-3-15s1-7,1-7L1178,793z"/>
	<path id="cheville_gauche_1_" class="st6" d="M1268,807c0,0,10,25,13,36s12,28,14,28s24-20,24-21s-2-29-2-29s-3-4-5-12
		s-1.7-10.1-1.7-10.1L1268,807z"/>
	<path id="morceau_bras_droit_1_" class="st6" d="M1359,597c0,0,46,5,37,18s-15,34-15,34l-30-37L1359,597z"/>
	<path id="pantalon_1_" class="st10" d="M1460,758c0,0,11,38,2,57s-14,36-25,40s-36,18-63,0s-57-49-61-75l-3,21c0,0-11,6-20,7
		s-22-1-22-1s-7-45-10-49c0,0-20,19-26,24s-19,20-19,20s-28-2-30-5s-5-4-5-4s16-70,36-106s42-60,42-60s7-59,22-71s40-4,44,0
		s55,71,79,110S1460,758,1460,758z"/>
	<path class="st9" d="M1228,832c0,0,10,8,10,10s-18,41-21,46s-26,40-30,42s-7,0-7,0L1228,832z"/>
	<path id="chaussure_droit_1_" class="st5" d="M1189,836c6,2,7,7,12,4s4-10,6-15s7-12,10-10s4,7,5,9s9,7,9,10s-17,46-21,53
		s-20,28-22,34s-7,15-12,12s-14-6-12-11s8.6-36.9,9-43c1-14-15-36.4-13-40C1164,832,1183,834,1189,836z"/>
	<path class="st9" d="M1337,830c0,0,10,3,10,5s-13,50-13,53s-4,51-9,54s-9-2-9-2L1337,830z"/>
	<path id="chaussure_gauche_1_" class="st5" d="M1298,852c8-2,11-9,9-13s-2-6-1-10s5-11,8-12s7,5,12,6s15,6,15,9s-14,50-14,53
		s0,38-2,45s-2,13-5,15s-16-1-18-10s-5.8-39.6-7-43c-4-11-17.5-26.4-20-33C1269,843,1290,854,1298,852z"/>
	<path id="trait_cou_2_" class="st11" d="M1490.5,518.5c1.8-0.4,19.4-4.6,21-5c9-2,24-9,24-9"/>
	<path class="st11" d="M1313,780c0,0,24-111,12-144"/>
	<path class="st11" d="M1256.3,624.5c0,0-1.8,45,0.2,74s2,59,2,59"/>
	<path class="st11" d="M1328.2,672c0,0,36.3,111.5,68.3,134.5s58.8,23.5,58.8,23.5"/>
	<g>
		<g>
			<path class="st12" d="M1327.8,680.8c0,0,0.1,0.5,0.3,1.5"/>
			<path class="st13" d="M1329.5,688c5.5,20.9,23.4,82.3,53,113.5c22.7,24,54.9,30.4,66.5,32"/>
			<path class="st12" d="M1452,833.9c1,0.1,1.5,0.1,1.5,0.1"/>
		</g>
	</g>
	<path class="st14" d="M1471.5,458.5c0,0-4-27,9-37"/>
	<path class="st7" d="M1473.8,480.4l-3.6,11.7c-0.1,0.5,0.2,0.9,0.7,0.9h5.4c0.4,0,0.8-0.4,0.7-0.8l-1.8-11.7
		C1475.1,479.8,1474,479.7,1473.8,480.4z"/>
	<circle class="st15" cx="1282.9" cy="333.1" r="15.1"/>
	<circle class="st15" cx="1183.4" cy="173.6" r="20.6"/>
	<circle class="st15" cx="1201.2" cy="197.5" r="10.5"/>
	<circle class="st15" cx="1065.2" cy="504.5" r="10.5"/>
	<circle class="st15" cx="1091.2" cy="482.5" r="10.5"/>
	<circle class="st15" cx="1021.2" cy="395.5" r="10.5"/>
	<circle class="st15" cx="1526.2" cy="31.5" r="10.5"/>
	<circle class="st15" cx="1552.2" cy="100.5" r="10.5"/>
	<circle class="st15" cx="1602.2" cy="59.5" r="10.5"/>
	<circle class="st15" cx="1470.2" cy="-0.5" r="10.5"/>
	<circle class="st15" cx="795.9" cy="111.1" r="15.1"/>
	<circle class="st15" cx="465.9" cy="27.1" r="15.1"/>
	<circle class="st15" cx="537.4" cy="271.6" r="10.6"/>
	<path class="st16" d="M1397.5,615.5c0,0-7.5,1.5-9.5,3.5c-3.5,3.5-8,1-8,1"/>
</g>
<g id="GRID" class="st0">
</g>
<g id="Logo">
</g>
<g id="Calque_1">
</g>
</svg>
